<?xml version="1.0" encoding="UTF-8" standalone="no"?>
<!-- Created with Inkscape (http://www.inkscape.org/) -->

<svg
   width="40.999992mm"
   height="41.000004mm"
   viewBox="0 0 40.999992 41.000004"
   version="1.1"
   id="svg1"
   xmlns="http://www.w3.org/2000/svg"
   xmlns:svg="http://www.w3.org/2000/svg">
  <defs
     id="defs1" />
  <g
     id="layer1"
     transform="translate(-108.25717,-121.23922)">
    <g
       id="g3"
       transform="translate(-26.645123,112.84445)">
      <rect
         style="fill:#1a1a1a;stroke-width:0.218954"
         id="rect1-3-4"
         width="41"
         height="41"
         x="134.9023"
         y="8.3947744" />
      <g
         id="g2-5-3"
         transform="translate(137.06229,8.810805)"
         style="fill:#f2f2f2">
        <path
           id="path1-9-1"
           style="fill:#f2f2f2;stroke-width:0.264163"
           d="M 11.012366,5.77661 A 10,10 0 0 0 1.01246,15.776516 v 9.999906 h 4.999695 v -9.999906 a 5,5 0 0 1 5.000211,-5.000211 5,5 0 0 1 4.999695,5.000211 v 9.999906 h 5.000211 V 15.776516 A 10,10 0 0 0 11.012366,5.77661 Z" />
        <path
           id="path1-7-2-4"
           style="fill:#f2f2f2;stroke-width:0.264163"
           d="m 21.166509,11.776785 a 10.000094,10 0 0 1 0.845943,3.999756 v 0.999939 h 3.999756 a 5,5 0 0 1 4.999695,5.000211 5,5 0 0 1 -4.999695,4.999695 5,5 0 0 1 -5.17e-4,0 h -9.99939 v 5.000212 h 9.99939 a 10,10 0 0 0 5.17e-4,0 10,10 0 0 0 9.999389,-9.999907 10,10 0 0 0 -9.999389,-9.999906 z m -5.154208,1.00459 v 3.995105 h 0.999939 v -0.999939 a 5.0000469,5 0 0 0 -0.999939,-2.995166 z" />
      </g>
    </g>
  </g>
</svg>
